<svg width="17" height="17" viewBox="0 0 17 17" fill="none" xmlns="http://www.w3.org/2000/svg">
<path d="M8.15967 2.5C8.50685 2.5 8.78847 2.78155 8.78847 3.1288V7.53038H13.19C13.5372 7.53038 13.8188 7.81192 13.8188 8.15918C13.8188 8.34916 13.7345 8.51944 13.6015 8.63463C13.4914 8.73013 13.3472 8.78798 13.19 8.78798H8.78847V13.1896C8.78847 13.5368 8.50685 13.8184 8.15967 13.8184C7.81249 13.8184 7.53087 13.5368 7.53087 13.1896V8.78798H3.12929C2.78214 8.78798 2.50049 8.50644 2.50049 8.15918C2.50049 7.81192 2.78214 7.53038 3.12929 7.53038H7.53087V3.1288C7.53087 2.78155 7.81249 2.5 8.15967 2.5Z" fill="black"/>
</svg>
