<svg width="20" height="20" viewBox="0 0 20 20" fill="none" xmlns="http://www.w3.org/2000/svg">
<path opacity="0.4" fill-rule="evenodd" clip-rule="evenodd" d="M16.849 10.8243L16.8465 9.10685C16.8465 2.77852 15.854 1.66602 10.2082 1.66602C4.56233 1.66602 3.56983 2.77852 3.56983 9.10685L3.56733 10.8243C3.55983 15.5118 3.5565 17.2668 4.27233 17.9827C4.504 18.2152 4.8115 18.3327 5.18566 18.3327C5.9815 18.3327 6.8665 17.5768 7.804 16.776C8.63401 16.0668 9.57484 15.2635 10.2082 15.2635C10.8415 15.2635 11.7823 16.0668 12.6123 16.776C13.5498 17.5768 14.4348 18.3327 15.2307 18.3327C15.6048 18.3327 15.9123 18.2152 16.144 17.9827C16.8598 17.2668 16.8565 15.5118 16.849 10.8243Z" fill="black"/>
<path d="M7.35205 8.30469H13.0646C13.4096 8.30469 13.6896 8.02469 13.6896 7.67969C13.6896 7.33469 13.4096 7.05469 13.0646 7.05469H7.35205C7.00705 7.05469 6.72705 7.33469 6.72705 7.67969C6.72705 8.02469 7.00705 8.30469 7.35205 8.30469Z" fill="black"/>
</svg>
