<svg width="20" height="20" viewBox="0 0 20 20" fill="none" xmlns="http://www.w3.org/2000/svg">
<path opacity="0.4" fill-rule="evenodd" clip-rule="evenodd" d="M3.18848 14.0522C3.18848 16.5355 4.67931 18.0189 7.17931 18.0189H13.5293C16.0293 18.0189 17.5218 16.5605 17.5218 14.1105V9.35221C17.5218 9.26021 17.4472 9.18555 17.3552 9.18555H3.35514C3.2631 9.18555 3.18848 9.26021 3.18848 9.35221V14.0522Z" fill="black"/>
<path fill-rule="evenodd" clip-rule="evenodd" d="M16.4963 4.43685C15.888 3.83685 15.0297 3.49518 14.013 3.40352V2.60352C14.013 2.26185 13.7297 1.97852 13.388 1.97852C13.038 1.97852 12.763 2.26185 12.763 2.60352V5.56185C12.7047 5.57852 12.6547 5.59518 12.5963 5.59518C12.2463 5.59518 11.9713 5.31185 11.9713 4.97018V3.53685C11.9713 3.4448 11.8967 3.37018 11.8047 3.37018H7.94632V2.60352C7.94632 2.26185 7.67132 1.97852 7.32132 1.97852C6.97966 1.97852 6.69632 2.26185 6.69632 2.60352V5.56185C6.64632 5.57852 6.58799 5.59518 6.52966 5.59518C6.18799 5.59518 5.90466 5.31185 5.90466 4.97018V3.74981C5.90466 3.64154 5.80269 3.56196 5.69898 3.59306C4.10838 4.06996 3.18799 5.35944 3.18799 7.27018V7.77018C3.18799 7.86223 3.26261 7.93685 3.35465 7.93685H17.3547C17.4467 7.93685 17.5213 7.86223 17.5213 7.77018V7.27018C17.5213 6.09518 17.1713 5.11185 16.4963 4.43685Z" fill="black"/>
<path fill-rule="evenodd" clip-rule="evenodd" d="M6.99921 13.8815C7.35587 13.8815 7.64587 14.1706 7.64587 14.5281C7.64587 14.8848 7.35587 15.1748 6.99921 15.1748C6.64254 15.1748 6.35254 14.8848 6.35254 14.5281C6.35254 14.1706 6.64254 13.8815 6.99921 13.8815ZM6.99921 10.9531C7.35587 10.9531 7.64587 11.2431 7.64587 11.5998C7.64587 11.9573 7.35587 12.2465 6.99921 12.2465C6.64254 12.2465 6.35254 11.9573 6.35254 11.5998C6.35254 11.2431 6.64254 10.9531 6.99921 10.9531ZM10.3642 13.8815C10.7208 13.8815 11.0108 14.1706 11.0108 14.5281C11.0108 14.8848 10.7208 15.1748 10.3642 15.1748C10.0067 15.1748 9.7175 14.8848 9.7175 14.5281C9.7175 14.1706 10.0067 13.8815 10.3642 13.8815ZM10.3642 10.9531C10.7208 10.9531 11.0108 11.2431 11.0108 11.5998C11.0108 11.9573 10.7208 12.2465 10.3642 12.2465C10.0067 12.2465 9.7175 11.9573 9.7175 11.5998C9.7175 11.2431 10.0067 10.9531 10.3642 10.9531ZM13.7092 10.9531C14.0658 10.9531 14.355 11.2431 14.355 11.5998C14.355 11.9573 14.0658 12.2465 13.7092 12.2465C13.3517 12.2465 13.0625 11.9573 13.0625 11.5998C13.0625 11.2431 13.3517 10.9531 13.7092 10.9531Z" fill="black"/>
</svg>
