<svg width="20" height="20" viewBox="0 0 20 20" fill="none" xmlns="http://www.w3.org/2000/svg">
<path opacity="0.4" fill-rule="evenodd" clip-rule="evenodd" d="M15.1758 1.97656H10.1425C8.24248 1.97656 6.95915 3.27656 6.88415 5.21823V5.41615L6.88832 5.42031V10.1116C6.88832 12.1524 8.20165 13.5241 10.1566 13.5241H14.9912L14.9937 13.5266H15.3341C17.1924 13.4516 18.4424 12.1099 18.4424 10.1266V5.3849C18.4424 3.34323 17.1258 1.97656 15.1758 1.97656ZM10.7917 6.36702H5.75833C3.85833 6.36702 2.575 7.66703 2.5 9.60867V9.80659L2.50417 9.81075V14.502C2.50417 16.5428 3.8175 17.9145 5.7725 17.9145H10.6071L10.6096 17.917H10.95C12.8084 17.842 14.0584 16.5003 14.0584 14.517V9.77534C14.0584 7.7337 12.7417 6.36702 10.7917 6.36702Z" fill="black"/>
<path d="M14.0582 13.5243V9.7755C14.0582 7.73386 12.7415 6.36719 10.7915 6.36719H6.88818V10.1118C6.88818 12.1526 8.20152 13.5243 10.1565 13.5243H14.0582Z" fill="black"/>
</svg>
