<svg width="20" height="20" viewBox="0 0 20 20" fill="none" xmlns="http://www.w3.org/2000/svg">
<path opacity="0.4" fill-rule="evenodd" clip-rule="evenodd" d="M3.72996 4.18475C4.4813 3.47042 5.53977 3.125 6.77744 3.125H13.4803C14.7211 3.125 15.78 3.47025 16.5299 4.18513C17.283 4.90298 17.6705 5.942 17.667 7.21811V14.4416C17.667 15.7177 17.2777 16.7581 16.5242 17.4775C15.7737 18.1942 14.715 18.5417 13.4735 18.5417H6.77744C5.5372 18.5417 4.47784 18.1872 3.72702 17.4592C2.97415 16.7292 2.58398 15.6747 2.58398 14.3817V7.21747C2.58398 5.94081 2.97541 4.90212 3.72996 4.18475Z" fill="black"/>
<path d="M6.9305 1.45898C6.47026 1.45898 6.09717 1.83208 6.09717 2.29232V4.89748C6.09717 5.35772 6.47026 5.73081 6.9305 5.73081C7.39073 5.73081 7.76383 5.35772 7.76383 4.89748V2.29232C7.76383 1.83208 7.39073 1.45898 6.9305 1.45898Z" fill="black"/>
<path d="M13.3275 1.45898C12.8673 1.45898 12.4941 1.83208 12.4941 2.29232V4.89748C12.4941 5.35772 12.8673 5.73081 13.3275 5.73081C13.7877 5.73081 14.1608 5.35772 14.1608 4.89748V2.29232C14.1608 1.83208 13.7877 1.45898 13.3275 1.45898Z" fill="black"/>
<path fill-rule="evenodd" clip-rule="evenodd" d="M10.125 15.5677C9.20833 15.5677 6.625 15.5677 6.625 13.9011C6.625 12.2344 9.20833 12.2344 10.125 12.2344C11.875 12.2344 12.7917 12.4844 13.2917 12.9844C13.5417 13.2344 13.625 13.5677 13.625 13.9011C13.625 15.5677 11.0417 15.5677 10.125 15.5677ZM10.125 6.23438C11.4583 6.23438 12.5417 7.31771 12.5417 8.65107C12.5417 9.9844 11.4583 11.0677 10.125 11.0677C8.79167 11.0677 7.70833 9.9844 7.70833 8.65107C7.70833 7.31771 8.79167 6.23438 10.125 6.23438Z" fill="black"/>
</svg>
