<svg width="20" height="20" viewBox="0 0 20 20" fill="none" xmlns="http://www.w3.org/2000/svg">
<path fill-rule="evenodd" clip-rule="evenodd" d="M1.875 5.24174C1.875 3.51319 3.27712 2.11133 5.00622 2.11133H14.9946C16.724 2.11133 18.125 3.51344 18.125 5.24174V11.4923C18.125 13.2212 16.7241 14.6235 14.9946 14.6235H5.00622C3.27698 14.6235 1.875 13.2215 1.875 11.4923V5.24174ZM5.00622 3.36133C3.96721 3.36133 3.125 4.2038 3.125 5.24174V11.4923C3.125 12.5312 3.96734 13.3735 5.00622 13.3735H14.9946C16.0332 13.3735 16.875 12.5314 16.875 11.4923V5.24174C16.875 4.20354 16.0333 3.36133 14.9946 3.36133H5.00622Z" fill="black"/>
<path fill-rule="evenodd" clip-rule="evenodd" d="M6.0874 17.2656C6.0874 16.9205 6.36722 16.6406 6.7124 16.6406H13.2872C13.6324 16.6406 13.9122 16.9205 13.9122 17.2656C13.9122 17.6108 13.6324 17.8906 13.2872 17.8906H6.7124C6.36722 17.8906 6.0874 17.6108 6.0874 17.2656Z" fill="black"/>
<path fill-rule="evenodd" clip-rule="evenodd" d="M10 13.5449C10.3452 13.5449 10.625 13.8248 10.625 14.1699V17.264C10.625 17.6092 10.3452 17.889 10 17.889C9.65483 17.889 9.375 17.6092 9.375 17.264V14.1699C9.375 13.8248 9.65483 13.5449 10 13.5449Z" fill="black"/>
</svg>
