<svg width="20" height="20" viewBox="0 0 20 20" fill="none" xmlns="http://www.w3.org/2000/svg">
<path fill-rule="evenodd" clip-rule="evenodd" d="M11.0927 15.0023H8.91269C8.56769 15.0023 8.28773 14.7223 8.28773 14.3773C8.28773 14.0323 8.56769 13.7523 8.91269 13.7523H11.0927C11.4377 13.7523 11.7177 14.0323 11.7177 14.3773C11.7177 14.7223 11.4377 15.0023 11.0927 15.0023ZM17.7852 14.434L16.7602 12.2031H3.24439L2.20523 14.4656C1.98606 15.0656 2.07356 15.7356 2.43939 16.259C2.80523 16.7823 3.40439 17.0948 4.04273 17.0948H15.961C16.5994 17.0948 17.1985 16.7823 17.5644 16.259C17.9302 15.7356 18.0177 15.0648 17.7852 14.434Z" fill="black"/>
<path opacity="0.4" fill-rule="evenodd" clip-rule="evenodd" d="M16.635 5.35292C16.635 4.00375 15.5375 2.90625 14.1883 2.90625H5.81581C4.46664 2.90625 3.36914 4.00375 3.36914 5.35292V10.9537H16.635V5.35292Z" fill="black"/>
</svg>
