<svg width="20" height="20" viewBox="0 0 20 20" fill="none" xmlns="http://www.w3.org/2000/svg">
<path fill-rule="evenodd" clip-rule="evenodd" d="M9.9994 12.9785C9.08134 12.9785 8.33398 13.7259 8.33398 14.6439C8.33398 15.5627 9.08134 16.3101 9.9994 16.3101C10.9182 16.3101 11.6663 15.5627 11.6663 14.6439C11.6663 13.7259 10.9182 12.9785 9.9994 12.9785Z" fill="black"/>
<path fill-rule="evenodd" clip-rule="evenodd" d="M9.9994 8.33594C9.08134 8.33594 8.33398 9.08333 8.33398 10.0014C8.33398 10.9202 9.08134 11.6675 9.9994 11.6675C10.9182 11.6675 11.6663 10.9202 11.6663 10.0014C11.6663 9.08333 10.9182 8.33594 9.9994 8.33594Z" fill="black"/>
<path fill-rule="evenodd" clip-rule="evenodd" d="M9.9994 7.02299C10.9182 7.02299 11.6663 6.27563 11.6663 5.35683C11.6663 4.43877 10.9182 3.69141 9.9994 3.69141C9.08134 3.69141 8.33398 4.43877 8.33398 5.35683C8.33398 6.27563 9.08134 7.02299 9.9994 7.02299Z" fill="black"/>
</svg>
