<svg width="20" height="20" viewBox="0 0 20 20" fill="none" xmlns="http://www.w3.org/2000/svg">
<path opacity="0.4" fill-rule="evenodd" clip-rule="evenodd" d="M16.2741 9.40242C16.4509 9.40242 16.6245 9.41375 16.796 9.43217C16.9478 9.44842 17.0833 9.33208 17.0833 9.17941V5.88411C17.0833 3.96495 15.8483 2.67578 14.0091 2.67578H4.3225C2.48417 2.67578 1.25 3.96495 1.25 5.88411V12.0507C1.25 13.9699 2.485 15.2591 4.32333 15.2591H10.521C10.6654 15.2591 10.7766 15.1374 10.7715 14.9932C10.7705 14.9647 10.77 14.9362 10.77 14.9074C10.77 11.8674 13.2341 9.40242 16.2741 9.40242Z" fill="black"/>
<path fill-rule="evenodd" clip-rule="evenodd" d="M18.123 15.0696C17.8263 14.8962 17.443 14.9979 17.2697 15.2962C16.9655 15.8187 16.4013 16.1437 15.7947 16.1437C15.6338 16.1437 15.4863 16.1063 15.3455 16.0554C15.5963 15.9746 15.7813 15.7463 15.7813 15.4688C15.7813 15.1229 15.5013 14.8438 15.1563 14.8438H13.7222C13.6947 14.8438 13.6713 14.8554 13.6447 14.8587C13.6322 14.8604 13.6197 14.8638 13.6072 14.8663C13.5372 14.8804 13.473 14.9021 13.4138 14.9363C13.408 14.9396 13.4022 14.9396 13.3963 14.9429C13.388 14.9479 13.3838 14.9571 13.3755 14.9621C13.3222 14.9988 13.2763 15.0396 13.2372 15.0904C13.2213 15.1096 13.2088 15.1296 13.1963 15.1504C13.1697 15.1938 13.1488 15.2379 13.1338 15.2879C13.1222 15.3238 13.1163 15.3596 13.1113 15.3979C13.108 15.4221 13.0972 15.4429 13.0972 15.4688V16.8021C13.0972 17.1471 13.3772 17.4271 13.7222 17.4271C14.0197 17.4271 14.2572 17.2146 14.3205 16.9354C14.7188 17.1921 15.2113 17.3937 15.7947 17.3937C16.8455 17.3937 17.8247 16.8304 18.3497 15.9229C18.523 15.6246 18.4213 15.2421 18.123 15.0696Z" fill="black"/>
<path fill-rule="evenodd" clip-rule="evenodd" d="M18.7369 13.4696C18.7394 13.4462 18.7503 13.4263 18.7503 13.4021V11.9687C18.7503 11.6237 18.4703 11.3438 18.1253 11.3438C17.7803 11.3438 17.5003 11.6237 17.5003 11.9687V11.9704C17.0594 11.7038 16.4936 11.4938 15.7953 11.4938C14.7394 11.4938 13.7569 12.0613 13.2311 12.9738C13.0594 13.2721 13.1619 13.6546 13.4619 13.8271C13.7611 13.9979 14.1436 13.8954 14.3153 13.5971C14.6219 13.0629 15.1761 12.7438 15.7953 12.7438C16.0269 12.7438 16.2294 12.7879 16.4161 12.8479C16.2111 12.9513 16.0669 13.1579 16.0669 13.4021C16.0669 13.7479 16.3461 14.0271 16.6919 14.0271H18.0944C18.1061 14.0279 18.1153 14.0354 18.1261 14.0354C18.2353 14.0354 18.3461 14.0071 18.4469 13.9471C18.4836 13.9254 18.5069 13.8921 18.5369 13.8646C18.5519 13.8521 18.5661 13.8404 18.5803 13.8254C18.6194 13.7829 18.6494 13.7363 18.6744 13.6854C18.6869 13.6621 18.6986 13.6396 18.7078 13.6146C18.7244 13.5671 18.7319 13.5196 18.7369 13.4696Z" fill="black"/>
<path fill-rule="evenodd" clip-rule="evenodd" d="M9.16598 11.5002C7.77011 11.5002 6.63428 10.3644 6.63428 8.96689C6.63428 7.56943 7.77011 6.43359 9.16598 6.43359C10.5618 6.43359 11.6976 7.56943 11.6976 8.96689C11.6976 10.3644 10.5618 11.5002 9.16598 11.5002ZM7.88433 8.96689C7.88433 8.2586 8.45931 7.6836 9.16598 7.6836C9.87264 7.6836 10.4476 8.2586 10.4476 8.96689C10.4476 9.67523 9.87264 10.2502 9.16598 10.2502C8.45931 10.2502 7.88433 9.67523 7.88433 8.96689Z" fill="black"/>
<path d="M5.51487 6.63477H4.3457C4.0007 6.63477 3.7207 6.35477 3.7207 6.00977C3.7207 5.66477 4.0007 5.38477 4.3457 5.38477H5.51487C5.85987 5.38477 6.13987 5.66477 6.13987 6.00977C6.13987 6.35477 5.85987 6.63477 5.51487 6.63477Z" fill="black"/>
</svg>
