<svg width="20" height="20" viewBox="0 0 20 20" fill="none" xmlns="http://www.w3.org/2000/svg">
<path fill-rule="evenodd" clip-rule="evenodd" d="M9.58357 3.40779V2.20117H10.8336V3.40779C13.7884 3.71986 16.0907 6.21965 16.0907 9.25715V11.5848C16.0907 13.03 16.5301 14.4411 17.3504 15.6308L18.026 16.6106H2.39111L3.06667 15.6308C3.88703 14.4411 4.32634 13.03 4.32634 11.5848V9.25723C4.32634 6.21965 6.62873 3.71986 9.58357 3.40779ZM10.2086 4.62498C7.65025 4.62498 5.57634 6.69889 5.57634 9.25723V11.5848C5.57634 12.9017 5.266 14.1945 4.67723 15.3606H15.7398C15.1511 14.1945 14.8407 12.9017 14.8407 11.5848V9.25715C14.8407 6.69889 12.7668 4.62498 10.2086 4.62498Z" fill="black"/>
<path fill-rule="evenodd" clip-rule="evenodd" d="M6.89307 16.1745V15.9824H8.14307V16.1745C8.14307 17.3152 9.06775 18.2399 10.2085 18.2399C11.3493 18.2399 12.2739 17.3152 12.2739 16.1745V15.9824H13.5239V16.1745C13.5239 18.0055 12.0396 19.4899 10.2085 19.4899C8.37742 19.4899 6.89307 18.0055 6.89307 16.1745Z" fill="black"/>
</svg>
