<svg width="20" height="20" viewBox="0 0 20 20" fill="none" xmlns="http://www.w3.org/2000/svg">
<path opacity="0.4" fill-rule="evenodd" clip-rule="evenodd" d="M16.5014 12.4254C16.3005 12.2346 16.0839 12.0288 15.8555 11.8013C14.7889 10.7355 13.868 11.0962 13.1289 11.3871C12.2439 11.7338 11.408 12.0622 9.88222 10.5346C8.35722 9.01207 8.68388 8.17544 9.03055 7.28961C9.31971 6.54794 9.67972 5.62544 8.61472 4.56044C8.38055 4.32544 8.1689 4.10378 7.97556 3.89961C7.1939 3.07794 6.6289 2.48378 5.8339 2.47461H5.8139C5.13057 2.47461 4.4139 2.91128 3.3489 3.97628C3.33807 3.98711 3.2839 4.04128 3.27473 4.05294C3.0364 4.28544 2.40307 4.90544 2.39557 6.11461C2.38473 8.00294 3.90723 10.488 6.91973 13.4988C9.92055 16.4996 12.3972 18.0205 14.2814 18.0205C14.288 18.0205 14.2947 18.0196 14.3014 18.0196C15.5105 18.0129 16.1297 17.3788 16.363 17.1405L16.4405 17.0655C17.5147 15.9922 17.9489 15.2722 17.9405 14.5822C17.9297 13.783 17.3305 13.2129 16.5014 12.4254Z" fill="black"/>
<path fill-rule="evenodd" clip-rule="evenodd" d="M11.8638 4.92852C12.2088 4.92852 12.4888 4.64852 12.4888 4.30352V2.60352C12.4888 2.25852 12.2088 1.97852 11.8638 1.97852C11.5188 1.97852 11.2388 2.25852 11.2388 2.60352V4.30352C11.2388 4.64852 11.5188 4.92852 11.8638 4.92852Z" fill="black"/>
<path fill-rule="evenodd" clip-rule="evenodd" d="M14.9042 6.13792C15.0642 6.13792 15.2234 6.07708 15.3459 5.95542L16.5484 4.75542C16.7925 4.51125 16.7934 4.11542 16.5492 3.87042C16.3059 3.62625 15.91 3.62708 15.6659 3.86958L14.4625 5.07042C14.2184 5.31458 14.2184 5.70958 14.4617 5.95458C14.5842 6.07708 14.7442 6.13792 14.9042 6.13792Z" fill="black"/>
<path fill-rule="evenodd" clip-rule="evenodd" d="M17.8128 7.92969H16.1128C15.7678 7.92969 15.4878 8.20969 15.4878 8.55465C15.4878 8.89965 15.7678 9.17965 16.1128 9.17965H17.8128C18.1578 9.17965 18.4378 8.89965 18.4378 8.55465C18.4378 8.20969 18.1578 7.92969 17.8128 7.92969Z" fill="black"/>
</svg>
