<svg width="20" height="20" viewBox="0 0 20 20" fill="none" xmlns="http://www.w3.org/2000/svg">
<path opacity="0.4" fill-rule="evenodd" clip-rule="evenodd" d="M9.27841 2.08203C5.40338 2.08203 2.26172 5.2237 2.26172 9.09873C2.26172 12.9737 5.40338 16.1154 9.27841 16.1154C13.1534 16.1154 16.2951 12.9737 16.2951 9.09873C16.2951 5.2237 13.1534 2.08203 9.27841 2.08203Z" fill="black"/>
<path fill-rule="evenodd" clip-rule="evenodd" d="M17.4937 16.4942L15.8412 14.8451C15.5154 14.5201 14.9871 14.5201 14.6629 14.8468C14.3371 15.1726 14.3379 15.7009 14.6637 16.0259L16.3171 17.6743C16.4796 17.8359 16.6929 17.9175 16.9054 17.9175C17.1187 17.9175 17.3329 17.8359 17.4954 17.6726C17.8204 17.3468 17.8196 16.8192 17.4937 16.4942Z" fill="black"/>
<path d="M11.8357 12.3223H11.5273C11.1857 12.3223 10.9023 12.0473 10.9023 11.6973C10.9023 11.3556 11.1857 11.0723 11.5273 11.0723H11.8357C12.1773 11.0723 12.4607 11.3556 12.4607 11.6973C12.4607 12.0473 12.1773 12.3223 11.8357 12.3223Z" fill="black"/>
<path d="M9.70238 12.3223H7.01074C6.66908 12.3223 6.38574 12.0473 6.38574 11.6973C6.38574 11.3556 6.66908 11.0723 7.01074 11.0723H9.70238C10.044 11.0723 10.3274 11.3556 10.3274 11.6973C10.3274 12.0473 10.044 12.3223 9.70238 12.3223Z" fill="black"/>
<path d="M12.786 9.82227H6.06104C5.71104 9.82227 5.43604 9.54727 5.43604 9.19727C5.43604 8.8556 5.71104 8.57227 6.06104 8.57227H12.786C13.136 8.57227 13.411 8.8556 13.411 9.19727C13.411 9.54727 13.136 9.82227 12.786 9.82227Z" fill="black"/>
<path d="M7.02002 6.07227H7.32835C7.67835 6.07227 7.95335 6.3556 7.95335 6.69727C7.95335 7.04727 7.67835 7.32227 7.32835 7.32227H7.02002C6.67002 7.32227 6.39502 7.04727 6.39502 6.69727C6.39502 6.3556 6.67002 6.07227 7.02002 6.07227Z" fill="black"/>
<path d="M9.16113 6.07227H11.8361C12.1778 6.07227 12.4611 6.3556 12.4611 6.69727C12.4611 7.04727 12.1778 7.32227 11.8361 7.32227H9.16113C8.81947 7.32227 8.53613 7.04727 8.53613 6.69727C8.53613 6.3556 8.81947 6.07227 9.16113 6.07227Z" fill="black"/>
</svg>
