<svg width="20" height="20" viewBox="0 0 20 20" fill="none" xmlns="http://www.w3.org/2000/svg">
<path opacity="0.4" d="M9.44443 17.5486C9.86693 17.7928 10.3419 17.9153 10.8161 17.9153C11.2903 17.9153 11.7653 17.7928 12.1878 17.5486L16.6678 14.9619C17.5144 14.4736 18.0403 13.5628 18.0403 12.5861V7.4119C18.0403 6.43607 17.5144 5.52523 16.6678 5.0369L12.1878 2.45023C11.3419 1.9619 10.2903 1.9619 9.44443 2.45023L4.96444 5.0369C4.11861 5.52607 3.59277 6.43607 3.59277 7.4119V12.5861C3.59277 13.5628 4.11861 14.4728 4.96444 14.9619L9.44443 17.5486Z" fill="black"/>
<path fill-rule="evenodd" clip-rule="evenodd" d="M10.8164 12.5078C12.2022 12.5078 13.3247 11.3844 13.3247 9.99943C13.3247 8.61276 12.2022 7.49023 10.8164 7.49023C9.43141 7.49023 8.30811 8.61276 8.30811 9.99943C8.30811 11.3844 9.43141 12.5078 10.8164 12.5078Z" fill="black"/>
</svg>
