<svg width="20" height="20" viewBox="0 0 20 20" fill="none" xmlns="http://www.w3.org/2000/svg">
<path fill-rule="evenodd" clip-rule="evenodd" d="M13.5269 6.5513V7.5338C13.5269 7.85296 13.7085 8.14296 13.9952 8.28296C14.1102 8.33967 14.236 8.36717 14.3602 8.36717C14.5427 8.36717 14.7235 8.30713 14.8727 8.19129C14.941 8.13713 16.5652 6.86963 17.4102 6.02296C17.736 5.69796 17.736 5.17046 17.411 4.84546C16.5652 3.99796 14.941 2.72963 14.8727 2.6763C14.621 2.48046 14.2802 2.44463 13.9952 2.58463C13.7085 2.7238 13.5269 3.01463 13.5269 3.33296V4.83463C11.6802 5.2513 9.82021 6.4188 8.62187 9.713C7.16021 13.7313 5.57605 13.7313 3.17855 13.7313C2.71771 13.7313 2.34521 14.1047 2.34521 14.5647C2.34521 15.0247 2.71771 15.398 3.17855 15.398C5.71021 15.398 8.32771 15.398 10.1877 10.283C11.0477 7.91963 12.2119 6.95213 13.5269 6.5513Z" fill="black"/>
<g opacity="0.4">
<path fill-rule="evenodd" clip-rule="evenodd" d="M14.8735 11.8091C14.6219 11.6133 14.281 11.5774 13.9952 11.7174C13.7094 11.8574 13.5277 12.1474 13.5277 12.4666V13.4441C12.9902 13.2791 12.4777 13.0216 12.0085 12.6124C11.6635 12.3091 11.136 12.3449 10.8327 12.6916C10.5302 13.0383 10.5652 13.5641 10.9119 13.8674C11.7335 14.5849 12.631 14.9591 13.5277 15.1624V16.6674C13.5277 16.9858 13.7094 17.2766 13.9952 17.4158C14.111 17.4724 14.236 17.5008 14.361 17.5008C14.5435 17.5008 14.7235 17.4408 14.8735 17.3241C14.9419 17.2708 16.5652 16.0024 17.411 15.1566C17.7369 14.8308 17.7369 14.3041 17.4119 13.9783C16.5652 13.1308 14.9419 11.8624 14.8735 11.8091Z" fill="black"/>
<path fill-rule="evenodd" clip-rule="evenodd" d="M3.18099 6.27018C4.69599 6.27018 5.89349 6.27018 6.91266 7.27685C7.07516 7.43768 7.28682 7.51768 7.49849 7.51768C7.71266 7.51768 7.92766 7.43518 8.09099 7.27018C8.41436 6.94268 8.41102 6.41518 8.08432 6.09185C6.57849 4.60352 4.85099 4.60352 3.18099 4.60352C2.72016 4.60352 2.34766 4.97685 2.34766 5.43685C2.34766 5.89685 2.72016 6.27018 3.18099 6.27018Z" fill="black"/>
</g>
</svg>
