<svg width="20" height="20" viewBox="0 0 20 20" fill="none" xmlns="http://www.w3.org/2000/svg">
<path opacity="0.4" fill-rule="evenodd" clip-rule="evenodd" d="M15.0617 10.3335L11.1175 9.05268L9.8375 5.10938C9.7275 4.76771 9.4225 4.54688 9.0625 4.54688C8.70167 4.54688 8.3975 4.76771 8.28667 5.10938L7.0175 9.05018L3.06583 10.3327C2.7275 10.4402 2.5 10.7518 2.5 11.1093C2.5 11.466 2.7275 11.7777 3.06417 11.8843L7.005 13.1585L8.28667 17.1085C8.3975 17.4502 8.70167 17.6719 9.0625 17.6719C9.4225 17.6719 9.7275 17.4502 9.8375 17.1085L11.1083 13.1677L15.0592 11.8852C15.3975 11.7777 15.6258 11.466 15.6258 11.1093C15.6258 10.7518 15.3975 10.4402 15.0617 10.3335Z" fill="black"/>
<path fill-rule="evenodd" clip-rule="evenodd" d="M18.045 4.70146C17.0425 4.37646 16.2509 3.58646 15.9267 2.58563C15.816 2.24229 15.245 2.24229 15.1342 2.58563C14.81 3.58646 14.0184 4.37646 13.0159 4.70146C12.8442 4.75729 12.7275 4.91729 12.7275 5.09813C12.7275 5.27813 12.8442 5.43812 13.0159 5.49396C14.0167 5.81812 14.8084 6.61229 15.1342 7.61812C15.1892 7.78979 15.35 7.90646 15.53 7.90646C15.7109 7.90646 15.8717 7.78979 15.9267 7.61812C16.2525 6.61229 17.0442 5.81812 18.045 5.49396C18.2167 5.43812 18.3335 5.27813 18.3335 5.09813C18.3335 4.91729 18.2167 4.75729 18.045 4.70146Z" fill="black"/>
</svg>
