<svg width="20" height="20" viewBox="0 0 20 20" fill="none" xmlns="http://www.w3.org/2000/svg">
<path d="M7.78997 12.3809C4.4868 12.3809 1.66553 12.8911 1.66553 14.9306C1.66553 16.9716 4.46886 17.4994 7.78997 17.4994C11.0931 17.4994 13.9144 16.9892 13.9144 14.9497C13.9144 12.9087 11.1111 12.3809 7.78997 12.3809Z" fill="black"/>
<path opacity="0.4" d="M7.79031 10.4374C10.04 10.4374 11.8428 8.67181 11.8428 6.46868C11.8428 4.26554 10.04 2.5 7.79031 2.5C5.54145 2.5 3.73779 4.26554 3.73779 6.46868C3.73779 8.67181 5.54145 10.4374 7.79031 10.4374Z" fill="black"/>
<path opacity="0.4" d="M13.4772 6.53988C13.4772 7.66181 13.1331 8.70867 12.5297 9.57827C12.4669 9.6677 12.5223 9.78828 12.6316 9.80745C12.7833 9.8322 12.939 9.84737 13.098 9.85057C14.6799 9.89129 16.0995 8.89393 16.4917 7.3919C17.0731 5.16322 15.3673 3.16211 13.1942 3.16211C12.9586 3.16211 12.7327 3.18607 12.5126 3.22998C12.4824 3.23637 12.4498 3.25075 12.4335 3.2763C12.4123 3.30904 12.4277 3.35136 12.449 3.37931C13.1021 4.27605 13.4772 5.36764 13.4772 6.53988Z" fill="black"/>
<path d="M18.1484 12.6411C17.8589 12.0366 17.1601 11.6222 16.0969 11.4186C15.5954 11.2988 14.2369 11.1287 12.9739 11.1527C12.9551 11.1551 12.9445 11.1678 12.9429 11.1758C12.9405 11.1886 12.9462 11.2078 12.9706 11.2213C13.5544 11.504 15.8107 12.7338 15.5269 15.3274C15.5147 15.4408 15.6068 15.5366 15.7218 15.5206C16.2771 15.4432 17.7056 15.1421 18.1484 14.2062C18.3938 13.7111 18.3938 13.1362 18.1484 12.6411Z" fill="black"/>
</svg>
